<svg width="24" height="27" viewBox="0 0 24 27" fill="none" xmlns="http://www.w3.org/2000/svg">
<path d="M12.6417 4.00251C12.0792 3.98261 11.5185 4.08137 10.9917 4.29314C10.4649 4.50491 9.9823 4.82556 9.5714 5.23676C9.16049 5.64796 8.82936 6.14167 8.59691 6.6897C8.36446 7.23773 8.23524 7.82935 8.21663 8.43078C8.19802 9.0322 8.29038 9.63166 8.48845 10.1949C8.68652 10.7582 8.98641 11.2742 9.371 11.7135C9.75559 12.1529 10.2173 12.5069 10.7299 12.7555C11.2425 13.004 11.7958 13.1422 12.3583 13.1621C12.9208 13.182 13.4814 13.0832 14.0083 12.8714C14.5351 12.6597 15.0177 12.339 15.4286 11.9278C15.8395 11.5166 16.1706 11.0229 16.4031 10.4749C16.6355 9.92684 16.7648 9.33522 16.7834 8.7338C16.802 8.13237 16.7096 7.53292 16.5115 6.96966C16.3135 6.4064 16.0136 5.89037 15.629 5.45103C15.2444 5.01169 14.7826 4.65764 14.2701 4.4091C13.7575 4.16056 13.2042 4.0224 12.6417 4.00251Z" fill="white"/>
<path d="M12.5 15.4557C10.9124 15.4557 9.3603 15.9579 8.03989 16.8991C6.71946 17.8403 5.68994 19.1784 5.08189 20.7443C4.94463 21.0978 4.98156 21.5013 5.18033 21.8196C5.3791 22.138 5.71344 22.3291 6.07143 22.3291L18.9286 22.3291C19.2866 22.3291 19.6209 22.138 19.8197 21.8196C20.0184 21.5013 20.0554 21.0978 19.9181 20.7443C19.3101 19.1784 18.2805 17.8403 16.9601 16.8991C15.6397 15.9579 14.0876 15.4557 12.5 15.4557Z" fill="white"/>
</svg>
