<svg width="24" height="24" viewBox="0 0 24 24" fill="none" xmlns="http://www.w3.org/2000/svg">
<path fill-rule="evenodd" clip-rule="evenodd" d="M6.66667 22C5.19391 22 4 20.8271 4 19.3802V10.6475C4 10.6179 4.0015 10.5886 4.00443 10.5598H4C4 10.0568 4.20338 9.57445 4.5654 9.2188L10.1144 3.76732C11.1558 2.74423 12.8442 2.74423 13.8856 3.76732L19.4346 9.21881C19.7966 9.57446 20 10.0568 20 10.5598H19.9956C19.9985 10.5886 20 10.6179 20 10.6475V19.3802C20 20.8271 18.8061 22 17.3333 22H6.66667ZM12.6285 5.00231L18.2222 10.4977V19.3802C18.2222 19.8625 17.8243 20.2535 17.3333 20.2535H14.6667V15.8871C14.6667 14.4402 13.4728 13.2673 12 13.2673C10.5272 13.2673 9.33333 14.4402 9.33333 15.8871V20.2535H6.66667C6.17575 20.2535 5.77778 19.8625 5.77778 19.3802V10.4978L11.3715 5.00231C11.7186 4.66128 12.2814 4.66128 12.6285 5.00231Z" fill="white"/>
</svg>
