<svg width="15" height="16" viewBox="0 0 15 16" fill="none" xmlns="http://www.w3.org/2000/svg">
<path fill-rule="evenodd" clip-rule="evenodd" d="M11.3646 10.9273C13.3041 8.27027 13.129 4.42622 10.8391 1.98367C8.35948 -0.661223 4.33927 -0.661223 1.85969 1.98367C-0.619897 4.62856 -0.619897 8.91678 1.85969 11.5617C4.14958 14.0042 7.75337 14.1911 10.2443 12.1223C10.255 12.1352 10.2662 12.1479 10.2779 12.1603L13.6451 15.752C13.9551 16.0827 14.4576 16.0827 14.7675 15.752C15.0775 15.4214 15.0775 14.8854 14.7675 14.5548L11.4003 10.963C11.3887 10.9506 11.3768 10.9387 11.3646 10.9273ZM9.71664 3.18092C11.5763 5.16459 11.5763 8.38075 9.71664 10.3644C7.85695 12.3481 4.8418 12.3481 2.98211 10.3644C1.12242 8.38075 1.12242 5.16459 2.98211 3.18092C4.8418 1.19725 7.85695 1.19725 9.71664 3.18092Z" fill="#878787"/>
</svg>
