<svg width="22" height="22" viewBox="0 0 22 22" fill="none" xmlns="http://www.w3.org/2000/svg">
<g clip-path="url(#clip0_674_3086)">
<path fill-rule="evenodd" clip-rule="evenodd" d="M3.79166 2H-1V4H2.2184L4.9872 16.6776H5V17H18V16.7519L20.1932 7.09095L20.5308 6H4.6552L4.08485 3.38852L3.79166 2ZM17.9869 8H5.092L6.62081 15H16.3978L17.9869 8Z" fill="white"/>
<path d="M8 22C9.10457 22 10 21.1046 10 20C10 18.8954 9.10457 18 8 18C6.89543 18 6 18.8954 6 20C6 21.1046 6.89543 22 8 22Z" fill="white"/>
<path d="M17 20C17 21.1046 16.1046 22 15 22C13.8954 22 13 21.1046 13 20C13 18.8954 13.8954 18 15 18C16.1046 18 17 18.8954 17 20Z" fill="white"/>
</g>
<defs>
<clipPath id="clip0_674_3086">
<rect width="22" height="22" fill="white" transform="matrix(-1 0 0 1 22 0)"/>
</clipPath>
</defs>
</svg>
