<svg width="15" height="19" viewBox="0 0 15 19" fill="none" xmlns="http://www.w3.org/2000/svg">
<path d="M7.6417 0.354556C7.0792 0.33466 6.51854 0.433418 5.99174 0.645191C5.46494 0.856965 4.9823 1.17761 4.5714 1.58881C4.16049 2.00001 3.82936 2.49372 3.59691 3.04175C3.36446 3.58978 3.23524 4.1814 3.21663 4.78283C3.19802 5.38425 3.29038 5.98371 3.48845 6.54697C3.68652 7.11023 3.98641 7.62626 4.371 8.0656C4.75559 8.50494 5.21734 8.85899 5.7299 9.10752C6.24246 9.35606 6.79579 9.49422 7.35829 9.51412C7.92079 9.53402 8.48145 9.43526 9.00825 9.22348C9.53506 9.01171 10.0177 8.69107 10.4286 8.27987C10.8395 7.86866 11.1706 7.37495 11.4031 6.82692C11.6355 6.27889 11.7648 5.68727 11.7834 5.08585C11.802 4.48442 11.7096 3.88497 11.5115 3.32171C11.3135 2.75845 11.0136 2.24242 10.629 1.80308C10.2444 1.36374 9.78265 1.00969 9.27009 0.761152C8.75753 0.512614 8.2042 0.374453 7.6417 0.354556Z" fill="white"/>
<path d="M7.5 11.8078C5.91242 11.8078 4.3603 12.31 3.03989 13.2512C1.71946 14.1924 0.689936 15.5304 0.0818911 17.0964C-0.0553711 17.4499 -0.0184356 17.8533 0.180334 18.1717C0.379103 18.49 0.713442 18.6812 1.07143 18.6812L13.9286 18.6812C14.2866 18.6812 14.6209 18.49 14.8197 18.1717C15.0184 17.8533 15.0554 17.4499 14.9181 17.0964C14.3101 15.5304 13.2805 14.1924 11.9601 13.2512C10.6397 12.31 9.08758 11.8078 7.5 11.8078Z" fill="white"/>
</svg>
